<?xml version="1.0" encoding="utf-8"?>
<!-- Generator: Adobe Illustrator 26.1.0, SVG Export Plug-In . SVG Version: 6.00 Build 0)  -->
<svg version="1.1" id="Layer_1" xmlns="http://www.w3.org/2000/svg" xmlns:xlink="http://www.w3.org/1999/xlink" x="0px" y="0px"
	 viewBox="0 0 90 23" style="enable-background:new 0 0 90 23;" xml:space="preserve">
<style type="text/css">
	.st0{fill:#FFFFFF;}
</style>
<g>
	<path class="st0" d="M-51.4-180.1c-0.2,0-0.6-0.2-0.8-0.5c-0.3-0.4-0.3-0.6,0-0.7c7.2-1.4,16.7-1.9,26.7-2.2
		c0.9-1.3,1.4-2.1,1.4-2.1c0.1-0.2,0.4-0.1,0.8,0.2c0.3,0.3,0.5,0.7,0.4,0.9l-0.6,1c2.7-0.1,5.5-0.1,8.3-0.2
		c6.8-0.1,13.6-0.3,19.9-0.6c0.3,0,0.6,0.3,0.8,0.6c0.2,0.3,0.2,0.6,0,0.6l-3,1.3c-0.2,0.1-0.6-0.1-0.8-0.4
		c-0.2-0.3-0.3-0.5-0.2-0.6c-5.2,0.2-10.5,0.3-15.9,0.5c-3.3,0.1-6.6,0.1-9.8,0.2c-4.7,7.2-18.7,29.2-18.5,29.5
		c0.1,0.1,1.7-1.8,1.7-1.8c0.1-0.1,0.5,0,0.8,0.3c0.3,0.3,0.4,0.7,0.3,0.8c0,0-2.2,2.5-3.5,1.1c-0.8-1,12.1-21.5,17.3-29.8
		C-35.8-182-44.6-181.5-51.4-180.1z"/>
	<path class="st0" d="M-17.1-178.2c0.1-0.2,0.5-0.1,0.8,0.2c0.3,0.3,0.5,0.7,0.4,0.9l-7.9,12.8c2-1.5,4-2.4,4.2,0
		c0,0.3,0.1,2.7,0.1,2.7c0.1,0.2,1.3-0.1,4.5-3.1c0.1-0.1,0.4-0.5,0.6-0.2c0.3,0.3,0.3,0.6,0.1,0.7c-3.6,3.3-5.3,4.1-6.1,3.3
		c-0.9-0.9-0.6-2.6-0.7-3.9c-0.1-0.9-5.8,5.6-5.9,5.6c-0.1,0.1-0.4,0-0.7-0.3c-0.3-0.3-0.5-0.7-0.4-0.9L-17.1-178.2z"/>
	<path class="st0" d="M-9.1-165.4c0.1,0.4,0,0.6-0.3,0.5c-0.3-0.1-0.6-0.4-0.8-0.7c-0.7-0.7-2.5,0.1-3.1,0.7c-1.3,1.1-2.1,2.4-2.5,4
		c1.3-0.4,4.5-4.2,4.5-4.2c0.1-0.1,0.5,0,0.8,0.3c0.3,0.3,0.4,0.6,0.3,0.8c-0.1,0.2-0.5,1.1-0.3,2.1c0.1,0.9,4.8-3.1,4.9-3.1
		c0.1-0.1,0.4-0.3,0.7,0c0.3,0.3,0.3,0.6,0.1,0.8c-2.4,2.1-3.8,3.4-4.8,3.9c-1.7,0.9-2.9,0.4-2.9-1.4c-1.3,1.2-2.6,2.3-3.4,2
		c-0.3-0.1-0.5-0.3-0.7-0.5c-0.4-0.5-0.5-1-0.4-1.5c0-0.4,0.2-0.9,0.4-1.4c0.5-1,1.3-2.1,2.2-2.9C-12.7-167.4-9.7-167.5-9.1-165.4z"
		/>
	<path class="st0" d="M-4.6-166.8c0.1-0.2,0.5-0.1,0.8,0.2c0.3,0.3,0.5,0.7,0.4,0.9l-0.9,1.6c1.9-1.6,4.1-3.2,4.9-3h0.1
		c1.1,0.3,1.3,1,1,1.9c-0.1,0.4-0.4,0.9-0.6,1.4c-0.5,0.9-1,2-1,2c1.2,0.8,5.1-2.7,5.1-2.7c0.1-0.1,0.5-0.6,0.8-0.3
		c0.3,0.3,0.1,0.4,0,0.5c0,0-3.9,4.7-5.8,3.4c-1.6-1-0.8-2.6-0.1-4c0.1-0.3,0.3-0.6,0.4-0.9c-2.1,1.1-6.9,5.7-7,5.8
		c-0.1,0.1-0.4,0-0.7-0.2c-0.3-0.3-0.5-0.7-0.4-0.9L-4.6-166.8z"/>
	<path class="st0" d="M13.1-178.2c0.1-0.2,0.5-0.1,0.8,0.2c0.3,0.3,0.5,0.7,0.4,0.9l-7.9,12.8c2-1.5,4-2.4,4.2,0
		c0,0.3,0.1,2.7,0.1,2.7c0.1,0.2,1.3-0.1,4.5-3.1c0.1-0.1,0.4-0.5,0.6-0.2c0.3,0.3,0.3,0.6,0.1,0.7c-3.6,3.3-5.3,4.1-6.1,3.3
		c-0.9-0.9-0.6-2.6-0.7-3.9c-0.1-0.9-5.8,5.6-5.9,5.6c-0.1,0.1-0.4,0-0.7-0.3c-0.3-0.3-0.5-0.7-0.4-0.9L13.1-178.2z"/>
	<path class="st0" d="M19.9-180.1c-0.2,0-0.6-0.2-0.8-0.5c-0.3-0.4-0.3-0.6,0-0.7c7.2-1.4,16.7-1.9,26.7-2.2
		c0.9-1.3,1.4-2.1,1.4-2.1c0.1-0.2,0.4-0.1,0.8,0.2c0.3,0.3,0.5,0.7,0.4,0.9l-0.6,1c2.7-0.1,5.5-0.1,8.3-0.2
		c6.8-0.1,13.6-0.3,19.9-0.6c0.3,0,0.6,0.3,0.8,0.6c0.2,0.3,0.2,0.6,0,0.6l-3,1.3c-0.2,0.1-0.6-0.1-0.8-0.4
		c-0.2-0.3-0.3-0.5-0.2-0.6c-5.2,0.2-10.5,0.3-15.9,0.5c-3.3,0.1-6.6,0.1-9.8,0.2c-4.7,7.2-18.7,29.2-18.5,29.5
		c0.1,0.1,1.7-1.8,1.7-1.8c0.1-0.1,0.5,0,0.8,0.3c0.3,0.3,0.4,0.7,0.3,0.8c0,0-2.2,2.5-3.5,1.1c-0.8-1,12.1-21.5,17.3-29.8
		C35.6-182,26.7-181.5,19.9-180.1z"/>
	<path class="st0" d="M48.4-168.6c0.1-0.2,0.5-0.1,0.8,0.2c0.3,0.3,0.5,0.7,0.4,0.9l-1.3,2.1c1.3-0.6,3-1.2,3.7-0.3
		c0.3,0.4,0.2,1.2,0.7,1.2c0.7,0,1.7-0.1,2.7-0.4c0.2-0.1,0.4-0.3,0.6,0.1c0.3,0.4,0.1,0.5-0.1,0.5c-1,0.3-2.8,0.7-3.5,0.6
		c-0.9-0.1-1.2-0.3-2-1.3c-0.5-0.6-3.8,2.2-3.8,2.2c-0.1,0-1.9,3.2-2.1,3.5c-0.1,0.2-0.5,0.1-0.8-0.2c-0.3-0.3-0.5-0.7-0.4-0.9
		L48.4-168.6z"/>
	<path class="st0" d="M57.4-167.9c0.1-0.1,0.5,0,0.8,0.3c0.3,0.3,0.4,0.7,0.3,0.9c-2.7,3.1-3,5.3-2.7,5.5c0.4,0.4,3.2-1.4,5.2-4.7
		L61-166c0.1-0.1,0.5,0,0.8,0.3c0.3,0.3,0.4,0.7,0.3,0.8c0,0-0.1,0.1-0.3,0.3c-0.5,0.6-3.2,4.4-0.5,3.1c1.4-0.7,3.1-2,4-3.2
		c0.1-0.2,0.3-0.5,0.6-0.2c0.3,0.3,0.1,0.5,0,0.6c-1,1.3-2.3,3-3.8,3.6c-1.3,0.6-2.8,0.3-3.1-1.2c-3.6,3.1-6.5,2.5-4.5-1.9
		C55.3-165.3,56.4-166.9,57.4-167.9z"/>
	<path class="st0" d="M70.2-163.9c-0.1,0.2-0.4,0.1-0.7-0.1c-0.3-0.3-0.5-0.7-0.4-0.9c0,0,0.6-1.3,0.5-1.3c-0.7,0-2.2,0.9-3.3,2.2
		c-0.4,0.5-0.8,1-1.1,1.5c-0.3,0.5-0.4,1-0.4,1.4c0,0.3,0.1,0.6,0.3,0.8c1.5,1.3,8.9-4.2,8.9-4.2c0.1,0,0.5-0.5,0.7-0.4
		c0.3,0.3,0.4,0.7,0.3,0.8c0,0-7.8,6.7-10.2,4.5c-0.8-0.7-1.1-1.5-1.1-2.3c0-0.6,0.2-1.1,0.5-1.7c0.3-0.5,0.7-1,1.1-1.6
		c1.2-1.3,2.8-2.4,3.6-2.3C71.9-167.3,70.2-163.9,70.2-163.9z"/>
</g>
<g>
	<path class="st0" d="M4.5,4.8C4.4,4.8,4.1,4.7,4,4.5C3.8,4.3,3.8,4.1,4,4c4.4-0.8,10.2-1.2,16.2-1.3c0.5-0.8,0.8-1.3,0.8-1.3
		c0.1-0.1,0.3,0,0.5,0.1c0.2,0.2,0.3,0.4,0.2,0.5l-0.4,0.6c1.7,0,3.4-0.1,5-0.1c4.1-0.1,8.3-0.2,12.1-0.4c0.2,0,0.4,0.2,0.5,0.4
		c0.1,0.2,0.1,0.4,0,0.4l-1.8,0.8c-0.1,0-0.4-0.1-0.5-0.3c-0.1-0.2-0.2-0.3-0.1-0.4c-3.1,0.1-6.4,0.2-9.7,0.3c-2,0-4,0.1-6,0.1
		C18,7.9,9.4,21.2,9.6,21.4c0,0,1.1-1.1,1.1-1.1c0.1-0.1,0.3,0,0.5,0.2c0.2,0.2,0.3,0.4,0.2,0.5c0,0-1.4,1.5-2.1,0.7
		C8.7,21,16.5,8.5,19.7,3.5C14,3.7,8.6,4,4.5,4.8z"/>
	<path class="st0" d="M25.4,6c0.1-0.1,0.3,0,0.5,0.1c0.2,0.2,0.3,0.4,0.2,0.5l-4.8,7.8c1.2-0.9,2.4-1.5,2.6,0c0,0.2,0,1.6,0,1.6
		c0.1,0.1,0.8-0.1,2.7-1.9c0.1-0.1,0.2-0.3,0.4-0.1c0.2,0.2,0.2,0.4,0.1,0.4c-2.2,2-3.2,2.5-3.7,2c-0.5-0.6-0.4-1.6-0.4-2.4
		c-0.1-0.5-3.6,3.4-3.6,3.4c-0.1,0.1-0.3,0-0.4-0.2c-0.2-0.2-0.3-0.4-0.2-0.5L25.4,6z"/>
	<path class="st0" d="M30.3,13.8c0.1,0.2,0,0.4-0.2,0.3c-0.2,0-0.4-0.2-0.5-0.4c-0.4-0.4-1.5,0.1-1.9,0.4c-0.8,0.7-1.3,1.4-1.5,2.5
		C27,16.3,29,14,29,14c0.1-0.1,0.3,0,0.5,0.2c0.2,0.2,0.2,0.4,0.2,0.5c0,0.1-0.3,0.7-0.2,1.3c0.1,0.5,2.9-1.9,3-1.9
		c0.1-0.1,0.3-0.2,0.4,0c0.2,0.2,0.2,0.4,0.1,0.5c-1.4,1.3-2.3,2.1-2.9,2.4c-1,0.5-1.8,0.2-1.8-0.9c-0.8,0.7-1.6,1.4-2.1,1.2
		c-0.2-0.1-0.3-0.2-0.4-0.3c-0.2-0.3-0.3-0.6-0.3-0.9c0-0.3,0.1-0.5,0.2-0.8c0.3-0.6,0.8-1.3,1.4-1.8C28.1,12.5,29.9,12.5,30.3,13.8
		z"/>
	<path class="st0" d="M33,12.9c0.1-0.1,0.3-0.1,0.5,0.1c0.2,0.2,0.3,0.4,0.2,0.5l-0.5,1c1.2-1,2.5-2,3-1.8h0
		c0.7,0.2,0.8,0.6,0.6,1.2c-0.1,0.2-0.2,0.5-0.4,0.9c-0.3,0.6-0.6,1.2-0.6,1.2c0.7,0.5,3.1-1.6,3.1-1.6c0.1-0.1,0.3-0.4,0.5-0.2
		c0.2,0.2,0.1,0.2,0,0.3c0,0-2.4,2.8-3.5,2.1c-1-0.6-0.5-1.6-0.1-2.5c0.1-0.2,0.2-0.4,0.2-0.5c-1.3,0.7-4.2,3.4-4.3,3.5
		c-0.1,0.1-0.3,0-0.4-0.1c-0.2-0.2-0.3-0.4-0.2-0.5L33,12.9z"/>
	<path class="st0" d="M43.8,6c0.1-0.1,0.3,0,0.5,0.1c0.2,0.2,0.3,0.4,0.2,0.5l-4.8,7.8c1.2-0.9,2.4-1.5,2.6,0c0,0.2,0,1.6,0,1.6
		c0.1,0.1,0.8-0.1,2.7-1.9c0.1-0.1,0.2-0.3,0.4-0.1c0.2,0.2,0.2,0.4,0.1,0.4c-2.2,2-3.2,2.5-3.7,2c-0.5-0.6-0.4-1.6-0.4-2.4
		c-0.1-0.5-3.6,3.4-3.6,3.4c-0.1,0.1-0.3,0-0.4-0.2c-0.2-0.2-0.3-0.4-0.2-0.5L43.8,6z"/>
	<path class="st0" d="M47.9,4.8c-0.1,0-0.4-0.1-0.5-0.3c-0.2-0.2-0.2-0.4,0-0.4c4.4-0.8,10.2-1.2,16.2-1.3c0.5-0.8,0.8-1.3,0.8-1.3
		c0.1-0.1,0.3,0,0.5,0.1c0.2,0.2,0.3,0.4,0.2,0.5l-0.4,0.6c1.7,0,3.4-0.1,5-0.1c4.1-0.1,8.3-0.2,12.1-0.4c0.2,0,0.4,0.2,0.5,0.4
		c0.1,0.2,0.1,0.4,0,0.4l-1.8,0.8c-0.1,0-0.4-0.1-0.5-0.3C80,3.3,79.9,3.1,80,3c-3.1,0.1-6.4,0.2-9.7,0.3c-2,0-4,0.1-6,0.1
		C61.4,7.9,52.9,21.2,53,21.4c0,0,1.1-1.1,1.1-1.1c0.1-0.1,0.3,0,0.5,0.2c0.2,0.2,0.3,0.4,0.2,0.5c0,0-1.4,1.5-2.1,0.7
		C52.1,21,60,8.5,63.1,3.5C57.4,3.7,52.1,4,47.9,4.8z"/>
	<path class="st0" d="M65.3,11.8c0.1-0.1,0.3,0,0.5,0.1c0.2,0.2,0.3,0.4,0.2,0.5l-0.8,1.3c0.8-0.4,1.8-0.7,2.3-0.2
		c0.2,0.2,0.1,0.7,0.4,0.7c0.4,0,1-0.1,1.6-0.2c0.1,0,0.3-0.2,0.4,0c0.2,0.2,0.1,0.3-0.1,0.3c-0.6,0.2-1.7,0.4-2.2,0.4
		c-0.6,0-0.7-0.2-1.2-0.8c-0.3-0.4-2.3,1.3-2.3,1.3c0,0-1.2,2-1.3,2.2c-0.1,0.1-0.3,0-0.5-0.1c-0.2-0.2-0.3-0.4-0.2-0.5L65.3,11.8z"
		/>
	<path class="st0" d="M70.7,12.2c0.1-0.1,0.3,0,0.5,0.2c0.2,0.2,0.2,0.4,0.2,0.5c-1.7,1.9-1.8,3.2-1.6,3.4c0.3,0.2,2-0.9,3.1-2.9
		l0.1-0.1c0.1-0.1,0.3,0,0.5,0.2c0.2,0.2,0.3,0.4,0.2,0.5c0,0,0,0.1-0.2,0.2c-0.3,0.4-1.9,2.7-0.3,1.9c0.9-0.4,1.9-1.2,2.4-2
		c0.1-0.1,0.2-0.3,0.4-0.1c0.2,0.2,0.1,0.3,0,0.4c-0.6,0.8-1.4,1.8-2.3,2.2c-0.8,0.4-1.7,0.2-1.9-0.7c-2.2,1.9-4,1.5-2.7-1.2
		C69.4,13.8,70.2,12.9,70.7,12.2z"/>
	<path class="st0" d="M78.5,14.7c-0.1,0.1-0.3,0.1-0.4-0.1c-0.2-0.2-0.3-0.4-0.3-0.5c0,0,0.4-0.8,0.3-0.8c-0.4,0-1.3,0.6-2,1.3
		c-0.3,0.3-0.5,0.6-0.7,0.9c-0.2,0.3-0.2,0.6-0.3,0.9c0,0.2,0,0.4,0.2,0.5c0.9,0.8,5.4-2.6,5.4-2.6c0.1,0,0.3-0.3,0.4-0.2
		c0.2,0.2,0.2,0.4,0.2,0.5c0,0-4.8,4.1-6.2,2.7c-0.5-0.4-0.7-0.9-0.7-1.4c0-0.4,0.1-0.7,0.3-1c0.2-0.3,0.4-0.6,0.7-0.9
		c0.7-0.8,1.7-1.4,2.2-1.4C79.5,12.6,78.5,14.7,78.5,14.7z"/>
</g>
</svg>
